<?xml version="1.0" standalone="no"?>
<!DOCTYPE svg PUBLIC "-//W3C//DTD SVG 20010904//EN"
 "http://www.w3.org/TR/2001/REC-SVG-20010904/DTD/svg10.dtd">
<svg version="1.0" xmlns="http://www.w3.org/2000/svg"
 width="128.000000pt" height="128.000000pt" viewBox="0 0 128.000000 128.000000"
 preserveAspectRatio="xMidYMid meet">
<metadata>
Created by potrace 1.11, written by Peter Selinger 2001-2013
</metadata>
<g transform="translate(0.000000,128.000000) scale(0.100000,-0.100000)"
fill="#000000" stroke="none">
<path d="M318 1072 c-20 -2 -28 -10 -33 -30 -3 -15 -7 -36 -10 -47 -6 -32 -39
-176 -113 -497 l-69 -298 114 0 c82 0 115 3 118 13 2 6 21 90 42 184 l38 173
165 1 c91 1 175 0 186 0 19 -2 24 8 41 81 11 46 19 85 17 87 -2 2 -82 4 -179
4 -97 0 -178 3 -181 8 -2 4 3 40 12 78 11 53 20 71 32 72 9 0 97 1 194 1 97 1
181 4 186 7 11 8 46 150 39 158 -6 6 -551 10 -599 5z"/>
<path d="M847 513 c-4 -3 -7 -100 -7 -214 0 -183 2 -208 16 -213 14 -5 110 43
236 119 9 5 41 23 72 39 30 17 58 36 61 44 6 17 -11 40 -40 53 -11 5 -38 21
-60 34 -22 14 -47 28 -55 32 -8 4 -55 31 -104 60 -89 53 -106 59 -119 46z"/>
</g>
</svg>
